<?xml version="1.0" standalone="no"?>
<!DOCTYPE svg PUBLIC "-//W3C//DTD SVG 20010904//EN"
 "http://www.w3.org/TR/2001/REC-SVG-20010904/DTD/svg10.dtd">
<svg version="1.0" xmlns="http://www.w3.org/2000/svg"
 width="700.000000pt" height="700.000000pt" viewBox="0 0 700.000000 700.000000"
 preserveAspectRatio="xMidYMid meet">
<metadata>
Created by potrace 1.14, written by Peter Selinger 2001-2017
</metadata>
<g transform="translate(0.000000,700.000000) scale(0.100000,-0.100000)"
fill="#000000" stroke="none">
<path d="M6798 6988 c-10 -23 -135 -121 -247 -192 -93 -59 -380 -208 -491
-256 -49 -21 -107 -46 -195 -86 -16 -7 -115 -45 -220 -84 -104 -40 -199 -76
-210 -80 -11 -5 -78 -29 -150 -53 -177 -61 -272 -100 -390 -159 -88 -44 -291
-162 -305 -178 -3 -3 -27 -20 -55 -39 -55 -37 -259 -201 -315 -251 -147 -134
-341 -338 -471 -495 -40 -49 -76 -92 -79 -95 -15 -14 -235 -319 -297 -410
-111 -166 -157 -242 -306 -500 -11 -19 -80 -152 -152 -295 -73 -143 -206 -406
-297 -585 -302 -594 -810 -1613 -824 -1653 -68 -191 21 -371 182 -371 124 1
226 90 338 299 21 39 104 192 184 340 80 149 151 280 156 292 6 13 14 23 19
23 4 0 7 4 7 10 0 14 123 220 189 315 185 271 373 448 563 534 122 54 219 74
420 86 398 23 836 199 1179 475 195 156 357 357 335 415 -7 19 -21 19 -92 -4
-85 -27 -133 -33 -285 -36 -132 -3 -246 10 -316 35 -74 27 -20 52 172 79 83
12 177 29 210 37 33 9 67 17 76 19 56 11 251 85 346 132 100 48 280 154 293
171 3 4 23 20 45 37 114 85 222 201 270 290 28 54 31 83 12 109 -13 18 -16 18
-64 2 -175 -58 -408 -53 -586 14 -32 12 -55 26 -51 31 3 5 9 7 13 5 4 -3 25
-1 47 4 21 5 53 11 69 13 68 12 226 58 308 91 528 214 858 689 958 1381 18
127 19 139 22 345 3 194 -2 272 -15 238z"/>
<path d="M1005 5827 c-346 -38 -646 -272 -768 -602 -59 -158 -56 -40 -54
-2330 2 -1155 6 -2113 10 -2130 4 -16 14 -56 22 -89 18 -70 81 -207 124 -270
64 -93 236 -256 269 -256 6 0 12 -4 14 -9 6 -17 175 -89 263 -112 l90 -24
2165 0 c1191 0 2185 3 2210 7 133 21 296 89 406 171 166 122 279 284 345 497
l24 75 3 1734 c2 1690 2 1733 -16 1720 -10 -8 -57 -42 -103 -77 -46 -35 -121
-86 -166 -113 -82 -50 -86 -55 -97 -119 -19 -110 -124 -280 -260 -424 l-56
-58 0 -1277 c0 -1222 -1 -1278 -19 -1316 -23 -50 -74 -99 -126 -121 -37 -16
-177 -17 -2114 -18 -1484 -1 -2087 2 -2118 10 -56 14 -111 59 -143 115 l-25
44 0 2066 0 2065 29 44 c15 23 40 53 55 66 60 54 38 53 1191 53 586 0 1079 0
1095 1 26 0 39 11 85 71 60 77 62 79 135 165 137 160 224 253 343 367 39 39
70 73 67 76 -9 8 -2802 7 -2880 -2z"/>
</g>
</svg>
